<svg width="1816" height="255" viewBox="0 0 1816 255" fill="none" xmlns="http://www.w3.org/2000/svg">
<path d="M127.039 175.37C127.039 212.308 103.565 227.152 74.2214 227.152C52.1276 227.152 39.0094 216.45 39.0094 199.535C39.0094 175.715 69.3884 167.43 127.039 161.906V175.37ZM66.2814 254.769C96.3152 254.769 117.028 245.103 128.42 225.771C129.456 237.854 130.146 243.032 131.527 250.281H166.049C162.597 233.711 160.871 211.272 160.871 183.31C160.871 175.37 161.561 143.265 161.561 138.777C161.906 83.197 134.634 60.0676 86.6492 60.0676C44.1876 60.0676 11.3921 83.5422 8.63039 123.242H44.8781C46.2589 100.113 60.4128 87.6848 85.2683 87.6848C108.053 87.6848 125.313 98.7317 125.313 131.527V135.325C53.5084 142.574 0 155.002 0 200.225C0 234.056 28.6529 254.769 66.2814 254.769Z" fill="black"/>
<path d="M223.166 157.764C223.166 111.85 246.64 91.137 274.258 91.137C304.292 91.137 324.314 115.302 324.314 157.764C324.314 200.225 304.292 224.735 274.258 224.735C246.64 224.735 223.166 203.677 223.166 157.764ZM188.644 0V250.281H224.547V224.045C235.939 243.377 254.926 254.769 282.543 254.769C325.695 254.769 362.633 218.522 362.633 157.764C362.633 97.0056 325.695 61.1032 282.543 61.1032C254.926 61.1032 235.939 72.4953 224.547 91.8274V0H188.644Z" fill="black"/>
<path d="M409.318 158.109C409.318 111.159 434.519 91.4822 461.446 91.4822C489.063 91.4822 513.918 112.195 513.918 158.109C513.918 203.332 489.063 224.39 461.446 224.39C434.519 224.39 409.318 203.677 409.318 158.109ZM461.446 61.1032C417.603 61.1032 371.344 90.7917 371.344 158.109C371.344 225.081 417.603 254.769 461.446 254.769C505.633 254.769 551.892 225.081 551.892 158.109C551.892 90.7917 505.633 61.1032 461.446 61.1032Z" fill="black"/>
<path d="M685.083 250.281H721.331V64.5553H685.429V165.358C685.429 202.296 670.93 224.39 640.551 224.39C608.1 224.39 603.613 199.535 603.613 172.953V64.5553H567.71V182.619C567.71 227.842 584.626 254.769 628.468 254.769C656.431 254.769 674.382 243.032 685.083 224.045V250.281Z" fill="black"/>
<path d="M759.364 64.5553H731.056V91.8274H759.364V202.642C759.364 240.961 767.649 250.281 805.278 250.281H831.514V221.629H816.325C798.374 221.629 795.267 216.796 795.267 197.809V91.8274H831.859V64.5553H795.267V16.9156H759.364V64.5553Z" fill="black"/>
</svg>
