<svg width="1817" height="312" viewBox="0 0 1817 312" fill="none" xmlns="http://www.w3.org/2000/svg">
<path d="M92.0213 224.764C62.6779 224.764 41.6197 203.705 37.8224 169.184H179.361C183.158 108.771 149.672 61.8217 92.3665 61.8217C39.5484 61.8217 0.884277 100.141 0.884277 157.792C0.884277 211.991 33.6798 255.488 93.4021 255.488C140.351 255.488 168.659 227.18 176.944 196.456H140.697C132.757 214.062 118.258 224.764 92.0213 224.764ZM92.0213 91.165C121.365 91.165 141.042 113.604 142.078 140.876H38.5128C43.691 105.319 64.0588 91.165 92.0213 91.165Z" fill="black"/>
<path d="M343.791 65.2738H304.092L260.594 126.032L217.788 65.2738H175.326L239.191 156.066L171.184 251H211.574L258.868 184.028L306.163 251H348.97L280.272 153.994L343.791 65.2738Z" fill="black"/>
<path d="M358.064 65.2738V311.413H393.966V224.764C405.358 244.096 424.345 255.488 451.963 255.488C495.115 255.488 532.053 219.24 532.053 158.482C532.053 97.7241 495.115 61.8217 451.963 61.8217C424.345 61.8217 405.358 73.2138 393.966 92.5459V65.2738H358.064ZM392.586 158.482C392.586 112.568 416.06 91.8555 443.677 91.8555C473.711 91.8555 493.734 116.021 493.734 158.482C493.734 200.944 473.711 225.454 443.677 225.454C416.06 225.454 392.586 204.396 392.586 158.482Z" fill="black"/>
<path d="M631.556 224.764C602.212 224.764 581.154 203.705 577.357 169.184H718.895C722.693 108.771 689.207 61.8217 631.901 61.8217C579.083 61.8217 540.419 100.141 540.419 157.792C540.419 211.991 573.214 255.488 632.937 255.488C679.886 255.488 708.194 227.18 716.479 196.456H680.231C672.291 214.062 657.792 224.764 631.556 224.764ZM631.556 91.165C660.899 91.165 680.576 113.604 681.612 140.876H578.047C583.226 105.319 603.593 91.165 631.556 91.165Z" fill="black"/>
<path d="M833.518 64.9286C830.411 64.5834 826.614 64.5834 823.507 64.5834C800.032 64.9286 781.735 77.0112 772.069 98.0694V65.2738H736.857V251H772.76V153.649C772.76 114.64 787.259 101.176 814.876 101.176C820.745 101.176 826.959 101.522 833.518 102.212V64.9286Z" fill="black"/>
<path d="M844.67 65.2738V251H880.572V65.2738H844.67ZM844.67 0.718506V40.4183H880.572V0.718506H844.67Z" fill="black"/>
<path d="M947.593 151.233C947.593 113.949 961.401 91.8555 990.399 91.8555C1022.5 91.8555 1026.99 117.056 1026.99 143.638V251H1062.89V151.233C1062.89 113.949 1077.05 91.8555 1105.7 91.8555C1137.81 91.8555 1142.29 117.056 1142.29 143.638V251H1178.2V133.972C1178.2 90.8198 1161.28 61.8217 1117.78 61.8217C1093.27 61.8217 1071.87 71.1425 1056.34 94.6172C1048.05 73.9043 1031.48 61.8217 1002.48 61.8217C975.9 61.8217 958.294 73.9043 947.593 92.2007V65.2738H911.69V251H947.593V151.233Z" fill="black"/>
<path d="M1284.63 224.764C1255.29 224.764 1234.23 203.705 1230.43 169.184H1371.97C1375.77 108.771 1342.28 61.8217 1284.98 61.8217C1232.16 61.8217 1193.5 100.141 1193.5 157.792C1193.5 211.991 1226.29 255.488 1286.01 255.488C1332.96 255.488 1361.27 227.18 1369.56 196.456H1333.31C1325.37 214.062 1310.87 224.764 1284.63 224.764ZM1284.63 91.165C1313.98 91.165 1333.65 113.604 1334.69 140.876H1231.13C1236.3 105.319 1256.67 91.165 1284.63 91.165Z" fill="black"/>
<path d="M1425.84 65.2738H1389.94V251H1425.84V151.233C1425.84 113.949 1440.68 91.8555 1472.1 91.8555C1506.27 91.8555 1510.42 117.056 1510.42 143.638V251H1546.32V133.972C1546.32 90.8198 1529.06 61.8217 1484.18 61.8217C1455.18 61.8217 1436.54 73.9043 1425.84 92.2007V65.2738Z" fill="black"/>
<path d="M1581.19 65.2738H1552.88V92.5459H1581.19V203.36C1581.19 241.679 1589.47 251 1627.1 251H1653.34V222.347H1638.15C1620.2 222.347 1617.09 217.514 1617.09 198.527V92.5459H1653.68V65.2738H1617.09V17.6341H1581.19V65.2738Z" fill="black"/>
<path d="M1812.49 117.056C1805.24 81.1538 1775.9 61.4765 1738.27 61.4765C1697.88 61.4765 1663.01 81.499 1663.01 114.295C1663.01 149.507 1689.25 161.589 1717.21 167.113L1745.18 172.636C1764.51 176.433 1780.73 183.683 1780.73 200.598C1780.73 217.169 1763.13 226.835 1739.65 226.835C1713.42 226.835 1700.3 214.407 1695.12 193.349H1658.53C1663.01 228.216 1691.32 255.488 1738.62 255.488C1781.42 255.488 1816.64 234.084 1816.64 196.456C1816.64 159.518 1785.57 148.471 1750.7 141.221L1724.12 136.043C1707.2 132.246 1698.23 126.722 1698.23 112.914C1698.23 97.7241 1717.21 90.4746 1734.82 90.4746C1755.88 90.4746 1771.76 97.7241 1776.94 117.056H1812.49Z" fill="black"/>
</svg>
