<svg width="1816" height="285" viewBox="0 0 1816 285" fill="none" xmlns="http://www.w3.org/2000/svg">
<path d="M0 59.2167V285H33.0651V205.517C43.557 223.25 61.0433 233.7 86.4781 233.7C126.22 233.7 160.239 200.45 160.239 144.717C160.239 88.9833 126.22 56.05 86.4781 56.05C61.0433 56.05 43.557 66.5 33.0651 84.2333V59.2167H0ZM31.7934 144.717C31.7934 102.6 53.4129 83.6 78.8476 83.6C106.508 83.6 124.948 105.767 124.948 144.717C124.948 183.667 106.508 206.15 78.8476 206.15C53.4129 206.15 31.7934 186.833 31.7934 144.717Z" fill="black"/>
<path d="M266.245 58.9C263.384 58.5833 259.886 58.5833 257.025 58.5833C235.405 58.9 218.555 69.9833 209.653 89.3V59.2167H177.223V229.583H210.289V140.283C210.289 104.5 223.642 92.15 249.076 92.15C254.481 92.15 260.204 92.4667 266.245 93.1V58.9Z" fill="black"/>
<path d="M296.938 145.033C296.938 101.967 320.147 83.9167 344.946 83.9167C370.381 83.9167 393.272 102.917 393.272 145.033C393.272 186.517 370.381 205.833 344.946 205.833C320.147 205.833 296.938 186.833 296.938 145.033ZM344.946 56.05C304.568 56.05 261.965 83.2833 261.965 145.033C261.965 206.467 304.568 233.7 344.946 233.7C385.642 233.7 428.245 206.467 428.245 145.033C428.245 83.2833 385.642 56.05 344.946 56.05Z" fill="black"/>
<path d="M445.356 236.233C445.356 254.283 442.813 258.4 427.552 258.4H419.921V285H433.592C469.519 285 478.421 274.55 478.421 235.283V59.2167H445.356V236.233ZM445.356 0V36.4167H478.421V0H445.356Z" fill="black"/>
<path d="M579.251 205.517C552.227 205.517 532.833 186.2 529.335 154.533H659.688C663.186 99.1167 632.346 56.05 579.569 56.05C530.925 56.05 495.316 91.2 495.316 144.083C495.316 193.8 525.52 233.7 580.523 233.7C623.762 233.7 649.832 207.733 657.463 179.55H624.08C616.767 195.7 603.414 205.517 579.251 205.517ZM579.251 82.9667C606.275 82.9667 624.398 103.55 625.351 128.567H529.971C534.74 95.95 553.498 82.9667 579.251 82.9667Z" fill="black"/>
<path d="M748.682 56.05C697.813 56.05 666.02 94.3667 666.02 144.717C666.02 196.333 696.859 233.7 746.457 233.7C784.291 233.7 817.356 208.683 824.351 172.9H790.968C786.199 193.167 768.394 205.517 747.093 205.517C723.248 205.517 701.31 186.517 701.31 144.4C701.31 102.917 723.248 84.2333 747.093 84.2333C768.712 84.2333 786.199 97.5333 789.696 116.85H822.761C817.674 83.9167 787.788 56.05 748.682 56.05Z" fill="black"/>
<path d="M846.159 59.2167H820.088V84.2333H846.159V185.883C846.159 221.033 853.789 229.583 888.444 229.583H912.607V203.3H898.618C882.086 203.3 879.224 198.867 879.224 181.45V84.2333H912.925V59.2167H879.224V15.5167H846.159V59.2167Z" fill="black"/>
<path d="M1059.18 106.717C1052.51 73.7833 1025.48 55.7333 990.829 55.7333C953.631 55.7333 921.519 74.1 921.519 104.183C921.519 136.483 945.682 147.567 971.435 152.633L997.188 157.7C1014.99 161.183 1029.93 167.833 1029.93 183.35C1029.93 198.55 1013.72 207.417 992.101 207.417C967.938 207.417 955.856 196.017 951.087 176.7H917.386C921.519 208.683 947.59 233.7 991.147 233.7C1030.57 233.7 1063 214.067 1063 179.55C1063 145.667 1034.39 135.533 1002.27 128.883L977.794 124.133C962.215 120.65 953.949 115.583 953.949 102.917C953.949 88.9833 971.435 82.3333 987.65 82.3333C1007.04 82.3333 1021.67 88.9833 1026.44 106.717H1059.18Z" fill="black"/>
</svg>
