<svg width="1155" height="311" viewBox="0 0 1155 311" fill="none" xmlns="http://www.w3.org/2000/svg">
<path d="M0 64.5553V310.694H35.9024V224.045C47.2946 243.377 66.2814 254.769 93.8987 254.769C137.051 254.769 173.989 218.522 173.989 157.764C173.989 97.0056 137.051 61.1032 93.8987 61.1032C66.2814 61.1032 47.2946 72.4953 35.9024 91.8274V64.5553H0ZM34.5216 157.764C34.5216 111.85 57.9963 91.137 85.6135 91.137C115.647 91.137 135.67 115.302 135.67 157.764C135.67 200.225 115.647 224.735 85.6135 224.735C57.9963 224.735 34.5216 203.677 34.5216 157.764Z" fill="black"/>
<path d="M289.091 64.2101C285.984 63.8649 282.187 63.8649 279.08 63.8649C255.605 64.2101 237.309 76.2927 227.643 97.3509V64.5553H192.431V250.281H228.333V152.931C228.333 113.921 242.832 100.458 270.45 100.458C276.318 100.458 282.532 100.803 289.091 101.493V64.2101Z" fill="black"/>
<path d="M322.418 158.109C322.418 111.159 347.619 91.4822 374.546 91.4822C402.163 91.4822 427.018 112.195 427.018 158.109C427.018 203.332 402.163 224.39 374.546 224.39C347.619 224.39 322.418 203.677 322.418 158.109ZM374.546 61.1032C330.703 61.1032 284.444 90.7917 284.444 158.109C284.444 225.081 330.703 254.769 374.546 254.769C418.733 254.769 464.992 225.081 464.992 158.109C464.992 90.7917 418.733 61.1032 374.546 61.1032Z" fill="black"/>
<path d="M483.572 257.531C483.572 277.208 480.81 281.696 464.24 281.696H455.955V310.694H470.799C509.808 310.694 519.474 299.302 519.474 256.495V64.5553H483.572V257.531ZM483.572 0V39.6998H519.474V0H483.572Z" fill="black"/>
<path d="M628.956 224.045C599.613 224.045 578.555 202.987 574.757 168.465H716.296C720.093 108.053 686.607 61.1032 629.301 61.1032C576.483 61.1032 537.819 99.4222 537.819 157.073C537.819 211.272 570.615 254.769 630.337 254.769C677.286 254.769 705.594 226.462 713.879 195.737H677.632C669.692 213.343 655.193 224.045 628.956 224.045ZM628.956 90.4465C658.3 90.4465 677.977 112.886 679.013 140.158H575.448C580.626 104.6 600.994 90.4465 628.956 90.4465Z" fill="black"/>
<path d="M812.927 61.1032C757.692 61.1032 723.17 102.874 723.17 157.764C723.17 214.034 756.656 254.769 810.51 254.769C851.591 254.769 887.493 227.497 895.088 188.488H858.84C853.662 210.582 834.33 224.045 811.2 224.045C785.309 224.045 761.489 203.332 761.489 157.418C761.489 112.195 785.309 91.8274 811.2 91.8274C834.675 91.8274 853.662 106.326 857.459 127.385H893.362C887.838 91.4822 855.388 61.1032 812.927 61.1032Z" fill="black"/>
<path d="M918.768 64.5553H890.46V91.8274H918.768V202.642C918.768 240.961 927.053 250.281 964.681 250.281H990.918V221.629H975.728C957.777 221.629 954.67 216.796 954.67 197.809V91.8274H991.263V64.5553H954.67V16.9156H918.768V64.5553Z" fill="black"/>
<path d="M1150.07 116.338C1142.82 80.4353 1113.48 60.758 1075.85 60.758C1035.46 60.758 1000.59 80.7805 1000.59 113.576C1000.59 148.788 1026.83 160.871 1054.79 166.394L1082.76 171.917C1102.09 175.715 1118.31 182.964 1118.31 199.88C1118.31 216.45 1100.71 226.116 1077.23 226.116C1051 226.116 1037.88 213.689 1032.7 192.63H996.107C1000.59 227.497 1028.9 254.769 1076.2 254.769C1119 254.769 1154.22 233.366 1154.22 195.737C1154.22 158.799 1123.15 147.752 1088.28 140.503L1061.7 135.325C1044.78 131.527 1035.81 126.004 1035.81 112.195C1035.81 97.0056 1054.79 89.7561 1072.4 89.7561C1093.46 89.7561 1109.34 97.0056 1114.52 116.338H1150.07Z" fill="black"/>
</svg>
